{
  "accessors": [
    {
      "bufferView": 2,
      "componentType": 5126,
      "count": 29295,
      "max": [
        0.33703070878982544,
        0.7696551084518433,
        0.3973426818847656
      ],
      "min": [
        -0.18650808930397034,
        -0.40673694014549255,
        -0.2318381369113922
      ],
      "type": "VEC3"
    },
    {
      "bufferView": 2,
      "byteOffset": 351540,
      "componentType": 5126,
      "count": 29295,
      "max": [
        0.9999476075172424,
        0.9999980330467224,
        0.9999079704284668
      ],
      "min": [
        -0.9999994039535522,
        -0.9990463852882385,
        -0.9999412894248962
      ],
      "type": "VEC3"
    },
    {
      "bufferView": 1,
      "componentType": 5126,
      "count": 29295,
      "max": [
        0.9970659613609314,
        0.9984128475189209
      ],
      "min": [
        0.00012046653137076646,
        0.0013063825899735093
      ],
      "type": "VEC2"
    },
    {
      "bufferView": 1,
      "byteOffset": 234360,
      "componentType": 5126,
      "count": 29295,
      "max": [
        0.9970659613609314,
        0.9984128475189209
      ],
      "min": [
        0.00012046653137076646,
        0.0013063825899735093
      ],
      "type": "VEC2"
    },
    {
      "bufferView": 1,
      "byteOffset": 468720,
      "componentType": 5126,
      "count": 29295,
      "max": [
        0.9970659613609314,
        0.9984128475189209
      ],
      "min": [
        0.00012046653137076646,
        0.0013063825899735093
      ],
      "type": "VEC2"
    },
    {
      "bufferView": 0,
      "componentType": 5125,
      "count": 133929,
      "type": "SCALAR"
    }
  ],
  "asset": {
    "extras": {
      "author": "alexdelker (https://sketchfab.com/alexdelker)",
      "license": "CC-BY-NC-SA-4.0 (http://creativecommons.org/licenses/by-nc-sa/4.0/)",
      "source": "https://sketchfab.com/3d-models/233-michelangelo-as-youth-emilio-zocchi-fa7736b8bab645298997391e7b7c81a5",
      "title": "233: Michelangelo as Youth - Emilio Zocchi"
    },
    "generator": "Sketchfab-12.66.0",
    "version": "2.0"
  },
  "bufferViews": [
    {
      "buffer": 0,
      "byteLength": 535716,
      "name": "floatBufferViews",
      "target": 34963
    },
    {
      "buffer": 0,
      "byteLength": 703080,
      "byteOffset": 535716,
      "byteStride": 8,
      "name": "floatBufferViews",
      "target": 34962
    },
    {
      "buffer": 0,
      "byteLength": 703080,
      "byteOffset": 1238796,
      "byteStride": 12,
      "name": "floatBufferViews",
      "target": 34962
    }
  ],
  "buffers": [
    {
      "byteLength": 1941876,
      "uri": "scene.bin"
    }
  ],
  "extensionsUsed": [
    "KHR_materials_unlit"
  ],
  "images": [
    {
      "uri": "textures/material_0_baseColor.jpeg"
    }
  ],
  "materials": [
    {
      "extensions": {
        "KHR_materials_unlit": {}
      },
      "name": "material_0",
      "pbrMetallicRoughness": {
        "baseColorTexture": {
          "index": 0
        },
        "metallicFactor": 0.0
      }
    }
  ],
  "meshes": [
    {
      "name": "Object_0",
      "primitives": [
        {
          "attributes": {
            "NORMAL": 1,
            "POSITION": 0,
            "TEXCOORD_0": 2,
            "TEXCOORD_1": 3,
            "TEXCOORD_2": 4
          },
          "indices": 5,
          "material": 0,
          "mode": 4
        }
      ]
    }
  ],
  "nodes": [
    {
      "children": [
        1
      ],
      "matrix": [
        1.0,
        0.0,
        0.0,
        0.0,
        0.0,
        2.220446049250313e-16,
        -1.0,
        0.0,
        0.0,
        1.0,
        2.220446049250313e-16,
        0.0,
        0.0,
        0.0,
        0.0,
        1.0
      ],
      "name": "Sketchfab_model"
    },
    {
      "children": [
        2
      ],
      "name": "root"
    },
    {
      "children": [
        3
      ],
      "matrix": [
        1.0,
        0.0,
        0.0,
        0.0,
        0.0,
        2.220446049250313e-16,
        1.0,
        0.0,
        0.0,
        -1.0,
        2.220446049250313e-16,
        0.0,
        0.0,
        0.0,
        0.0,
        1.0
      ],
      "name": "GLTF_SceneRootNode"
    },
    {
      "children": [
        4
      ],
      "name": "_0"
    },
    {
      "mesh": 0,
      "name": "Object_4"
    }
  ],
  "samplers": [
    {
      "magFilter": 9729,
      "minFilter": 9987,
      "wrapS": 10497,
      "wrapT": 10497
    }
  ],
  "scene": 0,
  "scenes": [
    {
      "name": "Sketchfab_Scene",
      "nodes": [
        0
      ]
    }
  ],
  "textures": [
    {
      "sampler": 0,
      "source": 0
    }
  ]
}
